<svg width="360" height="390" viewBox="0 0 360 390" fill="none" xmlns="http://www.w3.org/2000/svg">
<rect width="360" height="360" rx="40" fill="#F5F5F8"/>
<mask id="mask0" mask-type="alpha" maskUnits="userSpaceOnUse" x="0" y="0" width="360" height="360">
<rect width="360" height="360" rx="40" fill="white"/>
</mask>
<g mask="url(#mask0)">
<path fill-rule="evenodd" clip-rule="evenodd" d="M310.964 318.235C300.352 302.884 284.707 291.726 266.737 286.692L225 275V245.001C242.644 231.747 254.231 210.89 254.943 187.297C257.409 188.384 260.131 189 263.001 189C274.046 189 283.001 180.046 283.001 169C283.001 157.954 274.046 149 263.001 149C260.154 149 257.452 149.603 255.001 150.675V145C255.001 103.578 221.422 70.0003 180.001 70.0003H180C138.579 70.0003 105.001 103.578 105.001 145V150.675C102.549 149.603 99.8466 149 97.0006 149C85.9546 149 77.0006 157.954 77.0006 169C77.0006 180.046 85.9546 189 97.0006 189C99.8696 189 102.592 188.385 105.059 187.297C105.77 210.89 117.357 231.747 135 245.001V275L93.2636 286.692C75.2936 291.726 59.6486 302.884 49.0366 318.235L20.0006 360.24V390H340.001V360.24L310.964 318.235Z" fill="#E9ADA1"/>
<path fill-rule="evenodd" clip-rule="evenodd" d="M180 260C170.752 260 161.9 258.316 153.72 255.255C165.354 262.687 179.17 267 194 267C205.06 267 215.549 264.587 225 260.29V245.001C212.465 254.417 196.885 260 180 260Z" fill="#DB8B79"/>
<path d="M107.609 171.919C107.864 170.99 108.001 170.011 108.001 169.001C108.001 162.926 103.076 158.001 97.0012 158.001C95.4822 158.001 94.0352 158.309 92.7192 158.865" stroke="#00004D" stroke-width="2" stroke-linecap="round" stroke-linejoin="round"/>
<path d="M252.392 171.919C252.137 170.99 252.001 170.011 252.001 169.001C252.001 162.926 256.926 158.001 263.001 158.001C264.519 158.001 265.966 158.309 267.283 158.865" stroke="#00004D" stroke-width="2" stroke-linecap="round" stroke-linejoin="round"/>
<path fill-rule="evenodd" clip-rule="evenodd" d="M200 214.009C200 225.055 191.046 234.009 180 234.009C168.954 234.009 160 225.055 160 214.009H200Z" fill="white"/>
<path fill-rule="evenodd" clip-rule="evenodd" d="M221 172C221 176.418 217.418 180 213 180C208.582 180 205 176.418 205 172C205 167.582 208.582 164 213 164C217.418 164 221 167.582 221 172Z" fill="#00004D"/>
<path fill-rule="evenodd" clip-rule="evenodd" d="M155 172C155 176.418 151.418 180 147 180C142.582 180 139 176.418 139 172C139 167.582 142.582 164 147 164C151.418 164 155 167.582 155 172Z" fill="#00004D"/>
<path d="M180 164L190 198L176 200" stroke="#00004D" stroke-width="2" stroke-linecap="round" stroke-linejoin="round"/>
<path fill-rule="evenodd" clip-rule="evenodd" d="M340 360.24L310.963 318.235C300.352 302.885 284.707 291.726 266.736 286.692L225 275C225 299.853 204.853 320 180 320C155.147 320 135 299.853 135 275L93.263 286.692C75.293 291.726 59.648 302.885 49.036 318.235L20 360.24V390H340V360.24Z" fill="#2384F5"/>
</g>
<path fill-rule="evenodd" clip-rule="evenodd" d="M219.698 69.8397C219.889 68.2517 220 66.6397 220 64.9997C220 42.9087 202.092 24.9997 180 24.9997C157.908 24.9997 140 42.9087 140 64.9997C140 66.6397 140.11 68.2517 140.302 69.8397C113.363 84.0987 95.0002 112.399 95.0002 145C95.0002 146.375 95.0452 147.738 95.1142 149.096C95.7362 149.037 96.3632 149 97.0002 149C102.618 149 107.687 151.324 111.32 155.054C130.199 146.473 145.953 132.222 156.361 114.441C180.64 137.653 212.705 152.781 248.241 155.536C251.898 151.529 257.147 149 263 149C263.636 149 264.263 149.037 264.884 149.096C264.953 147.738 265 146.375 265 145C265 112.399 246.636 84.0987 219.698 69.8397Z" fill="#00004D"/>
</svg>
